<?xml version="1.0" encoding="UTF-8" standalone="no"?>
<!-- Created with Inkscape (http://www.inkscape.org/) -->

<svg
   width="49.6063pc"
   height="70.157478pc"
   viewBox="0 0 210 296.99999"
   version="1.1"
   id="svg1"
   xml:space="preserve"
   inkscape:version="1.4.2 (f4327f4, 2025-05-13)"
   sodipodi:docname="AFROGLOW  1.svg"
   inkscape:export-filename="C:\Users\HP\Desktop\maison design\AFROGLOW.png"
   inkscape:export-xdpi="12.095238"
   inkscape:export-ydpi="12.095238"
   xmlns:inkscape="http://www.inkscape.org/namespaces/inkscape"
   xmlns:sodipodi="http://sodipodi.sourceforge.net/DTD/sodipodi-0.dtd"
   xmlns="http://www.w3.org/2000/svg"
   xmlns:svg="http://www.w3.org/2000/svg"><sodipodi:namedview
     id="namedview1"
     pagecolor="#ffffff"
     bordercolor="#000000"
     borderopacity="0.25"
     inkscape:showpageshadow="2"
     inkscape:pageopacity="0.0"
     inkscape:pagecheckerboard="0"
     inkscape:deskcolor="#d1d1d1"
     inkscape:document-units="mm"
     showborder="false"
     showguides="false"
     inkscape:zoom="0.64"
     inkscape:cx="461.71875"
     inkscape:cy="532.03125"
     inkscape:window-width="1920"
     inkscape:window-height="974"
     inkscape:window-x="-11"
     inkscape:window-y="-11"
     inkscape:window-maximized="1"
     inkscape:current-layer="layer1" /><defs
     id="defs1" /><g
     inkscape:label="Calque 1"
     inkscape:groupmode="layer"
     id="layer1"><g
       id="g5"
       transform="matrix(1.9602968,0.06374327,-0.06374327,1.9602968,-37.161625,-54.847163)"
       style="stroke-width:0.509858"><g
         id="g4"
         transform="translate(15.617633,-4.4901281)"
         style="stroke-width:0.509858"><path
           style="fill:#961349;fill-opacity:1;stroke-width:0.1349"
           d="m 69.146843,101.81736 0.33514,0.40661 -0.02095,0.28613 0.900688,0.97887 0.670278,0.91862 0.377031,0.82828 0.188516,1.02405 0.08379,0.96381 0.125677,1.14452 0.104731,0.97887 0.16757,1.05416 0.146623,0.40661 0.209462,0.40661 0.08379,0.28613 0.20946,0.22589 0.314192,0.25602 0.502708,0.55719 0.586494,0.43673 0.754064,0.54215 1.068256,0.64755 0.251356,0.46684 -0.02096,0.48191 -0.146626,0.21083 -0.439868,0.21084 -0.523657,0.33131 -0.460818,0.0602 -0.335137,0.31625 -0.481763,0.25601 -0.146625,0.37649 0.10473,0.28614 0.272302,0.25601 0.188516,0.25601 0.356087,0.34637 v 0.4819 l -0.272302,0.22589 -0.502708,0.39155 -0.293247,0.0602 -0.125675,-0.0602 -0.104731,0.27108 0.335137,0.0602 0.251356,0.16566 0.335137,0.0904 0.146626,0.22589 0.104731,0.45179 -0.356087,0.27107 -0.481763,0.25601 -0.293247,0.19577 v 0.37649 l 0.06284,0.45178 0.06283,0.61744 -0.125676,0.73793 -0.293246,0.33131 -0.377031,0.28612 -0.712171,0.33131 -0.293246,0.0904 -0.523656,0.0753 -0.670278,-0.0302 -1.38245,-0.0451 h -1.131095 c -0.272301,0 -2.010835,0.0451 -2.010835,0.0451 l -0.837849,0.13553 -0.963525,0.0151 -0.984471,0.18072 -1.152042,0.25601 -0.837848,0.37648 -0.963526,0.37649 -0.607439,0.39155 -1.927051,1.40054 -1.110149,1.28005 -0.481762,0.96382 -0.397978,1.17464 c 0,0 -2.632058,-3.76424 -2.599722,-3.71341 1.660762,2.61103 2.150883,3.9467 1.885067,4.00695 -0.265815,0.0603 -1.287567,-1.15491 -2.650548,-3.64557 l 0.453681,3.72847 -0.230409,-0.64756 -0.125678,-0.76803 -0.146622,-0.63251 -0.167571,-0.84333 -0.06284,-0.97886 -0.08378,-1.59632 0.188516,-0.73791 0.335138,-0.87345 0.356086,-1.15958 0.670278,-1.35536 c 0,0 0.502709,-0.54214 0.544602,-0.60238 0.04189,-0.0602 0.900686,-1.03911 0.900686,-1.03911 l 1.612858,-1.24993 1.759481,-0.96381 1.256772,-0.81321 1.298665,-0.75298 1.256772,-0.66261 1.256772,-0.69274 1.319611,-1.00899 0.795957,-0.93369 0.816901,-0.93369 0.900687,-1.92762 c 0,0 0.712172,-1.77702 0.733117,-1.83726 0.02094,-0.0602 0.397978,-1.41559 0.397978,-1.41559 l 0.06284,-1.03911 0.209462,-0.49696 -0.06284,-0.6325 c 0,0 0.04189,-0.64756 0.04189,-0.7078 0,-0.0602 -0.293246,-0.81321 -0.293246,-0.81321 l -0.314193,-0.6325 -0.272301,-0.76804 -0.397978,-0.37648 -0.04189,-0.16566 0.293247,-0.0301 0.963526,0.36143 z"
           id="path2"
           sodipodi:nodetypes="ccccccccccccccccccccccccccccccccccccccccccccccccccccccccccsccccccccccccssccccccccccccscccccccccccsccccscccccccc" /><path
           style="fill:#961349;fill-opacity:1;stroke-width:0.1349"
           d="m 68.613766,100.13727 c 1.908413,3.34968 4.001201,3.70974 -0.146289,5.94201 -0.09474,-4.47064 -6.391415,-9.523403 0.146289,-5.94201 z"
           id="path4"
           sodipodi:nodetypes="ccc" /></g><text
         xml:space="preserve"
         style="font-weight:bold;font-size:9.525px;line-height:32.6141%;font-family:'Microsoft Tai Le';-inkscape-font-specification:'Microsoft Tai Le Bold';font-variant-ligatures:discretionary-ligatures;text-align:center;letter-spacing:0.282544px;word-spacing:-0.347518px;writing-mode:lr-tb;direction:ltr;text-anchor:middle;fill:#961349;fill-opacity:1;stroke-width:0.1349"
         x="79.703621"
         y="130.31766"
         id="text3"><tspan
           sodipodi:role="line"
           id="tspan3"
           style="font-size:9.525px;fill:#961349;fill-opacity:1;stroke-width:0.1349"
           x="79.844894"
           y="130.31766"><tspan
   style="fill:#000000;fill-opacity:1;stroke-width:0.1349"
   id="tspan5">AFRO</tspan>GLOW</tspan></text></g></g></svg>
